<svg xmlns="http://www.w3.org/2000/svg" xmlns:xlink="http://www.w3.org/1999/xlink" width="500" zoomAndPan="magnify" viewBox="0 0 375 374.999991" height="500" preserveAspectRatio="xMidYMid meet" version="1.0"><defs><clipPath id="ad071e3380"><path d="M 83 25.476562 L 293 25.476562 L 293 149 L 83 149 Z M 83 25.476562 " clip-rule="nonzero"/></clipPath><clipPath id="2a1d32dc1a"><path d="M 289 46 L 363.484375 46 L 363.484375 212 L 289 212 Z M 289 46 " clip-rule="nonzero"/></clipPath><clipPath id="b4766d1785"><path d="M 186 145 L 363.484375 145 L 363.484375 349.476562 L 186 349.476562 Z M 186 145 " clip-rule="nonzero"/></clipPath><clipPath id="baae92791b"><path d="M 117 266 L 261 266 L 261 349.476562 L 117 349.476562 Z M 117 266 " clip-rule="nonzero"/></clipPath><clipPath id="3073f4cba5"><path d="M 12 45 L 121 45 L 121 349.476562 L 12 349.476562 Z M 12 45 " clip-rule="nonzero"/></clipPath></defs><g clip-path="url(#ad071e3380)"><path fill="#f9943b" d="M 256.644531 148.417969 C 256.34375 148.417969 256.0625 148.339844 255.804688 148.179688 L 187.125 106.617188 L 119.652344 148.171875 C 119.40625 148.324219 119.140625 148.402344 118.851562 148.414062 C 118.5625 148.421875 118.289062 148.359375 118.035156 148.222656 L 84.820312 130.507812 C 84.558594 130.367188 84.351562 130.175781 84.195312 129.921875 C 84.042969 129.671875 83.964844 129.398438 83.957031 129.105469 C 83.953125 128.808594 84.019531 128.535156 84.164062 128.277344 C 84.308594 128.019531 84.507812 127.816406 84.761719 127.667969 L 154.105469 87.039062 L 84.792969 48.5625 C 84.539062 48.417969 84.339844 48.222656 84.191406 47.972656 C 84.042969 47.722656 83.964844 47.453125 83.960938 47.164062 C 83.957031 46.871094 84.027344 46.597656 84.167969 46.347656 C 84.3125 46.09375 84.507812 45.890625 84.757812 45.742188 L 118.527344 25.808594 C 118.78125 25.660156 119.054688 25.582031 119.347656 25.582031 C 119.644531 25.582031 119.917969 25.652344 120.171875 25.800781 L 187.140625 64.644531 L 254.957031 27.203125 C 255.484375 26.910156 256.015625 26.910156 256.539062 27.207031 L 291.773438 47.054688 C 292.027344 47.195312 292.226562 47.394531 292.375 47.644531 C 292.523438 47.894531 292.597656 48.167969 292.601562 48.457031 C 292.601562 48.746094 292.53125 49.019531 292.386719 49.273438 C 292.242188 49.527344 292.046875 49.726562 291.792969 49.871094 L 226.117188 88.101562 L 291.78125 126.003906 C 292.035156 126.148438 292.230469 126.347656 292.375 126.601562 C 292.519531 126.855469 292.59375 127.125 292.589844 127.417969 C 292.589844 127.707031 292.515625 127.976562 292.367188 128.230469 C 292.222656 128.480469 292.019531 128.679688 291.769531 128.820312 L 257.445312 148.199219 C 257.199219 148.34375 256.929688 148.414062 256.644531 148.417969 Z M 88.914062 129.011719 L 118.742188 144.917969 L 186.265625 103.335938 C 186.527344 103.175781 186.808594 103.09375 187.113281 103.09375 C 187.417969 103.09375 187.699219 103.171875 187.960938 103.328125 L 256.675781 144.910156 L 287.6875 127.402344 L 222.0625 89.515625 C 221.8125 89.371094 221.613281 89.171875 221.464844 88.917969 C 221.320312 88.667969 221.25 88.394531 221.25 88.105469 C 221.25 87.8125 221.320312 87.542969 221.464844 87.292969 C 221.613281 87.039062 221.8125 86.839844 222.0625 86.695312 L 287.707031 48.488281 L 255.734375 30.488281 L 187.902344 67.9375 C 187.652344 68.078125 187.386719 68.144531 187.101562 68.140625 C 186.816406 68.140625 186.546875 68.066406 186.300781 67.921875 L 119.359375 29.09375 L 88.855469 47.097656 L 158.179688 85.578125 C 158.433594 85.71875 158.636719 85.914062 158.789062 86.164062 C 158.9375 86.417969 159.011719 86.6875 159.015625 86.980469 C 159.019531 87.273438 158.949219 87.546875 158.804688 87.800781 C 158.664062 88.054688 158.464844 88.253906 158.210938 88.402344 Z M 88.914062 129.011719 " fill-opacity="1" fill-rule="nonzero"/></g><g clip-path="url(#2a1d32dc1a)"><path fill="#f9943b" d="M 291.871094 211.039062 C 291.65625 211.039062 291.449219 211 291.25 210.917969 C 291.050781 210.835938 290.875 210.71875 290.722656 210.566406 C 290.570312 210.414062 290.453125 210.238281 290.371094 210.042969 C 290.285156 209.84375 290.246094 209.636719 290.242188 209.421875 L 289.792969 128.535156 C 289.648438 128.382812 289.539062 128.214844 289.460938 128.019531 C 289.382812 127.828125 289.34375 127.628906 289.34375 127.421875 C 289.339844 127.210938 289.378906 127.011719 289.453125 126.820312 C 289.53125 126.625 289.636719 126.453125 289.78125 126.300781 L 289.347656 48.480469 C 289.34375 48.265625 289.386719 48.058594 289.46875 47.855469 C 289.546875 47.65625 289.664062 47.480469 289.816406 47.328125 C 289.96875 47.175781 290.144531 47.054688 290.339844 46.972656 C 290.539062 46.890625 290.746094 46.847656 290.964844 46.84375 L 290.972656 46.84375 C 291.1875 46.84375 291.394531 46.886719 291.59375 46.96875 C 291.792969 47.050781 291.96875 47.167969 292.121094 47.316406 C 292.273438 47.46875 292.390625 47.644531 292.472656 47.84375 C 292.554688 48.039062 292.597656 48.246094 292.597656 48.460938 L 293.03125 126.742188 L 362.238281 167.53125 C 362.359375 167.601562 362.472656 167.6875 362.570312 167.789062 C 362.671875 167.890625 362.753906 168.003906 362.824219 168.125 C 362.894531 168.25 362.949219 168.378906 362.984375 168.515625 C 363.019531 168.65625 363.039062 168.792969 363.039062 168.9375 C 363.039062 169.078125 363.019531 169.21875 362.980469 169.355469 C 362.945312 169.492188 362.890625 169.621094 362.820312 169.742188 C 362.75 169.867188 362.664062 169.976562 362.5625 170.078125 C 362.464844 170.179688 362.351562 170.265625 362.230469 170.335938 L 292.6875 210.816406 C 292.433594 210.964844 292.160156 211.039062 291.871094 211.039062 Z M 293.054688 130.527344 L 293.480469 206.59375 L 358.195312 168.921875 Z M 293.054688 130.527344 " fill-opacity="1" fill-rule="nonzero"/></g><g clip-path="url(#b4766d1785)"><path fill="#f9943b" d="M 258.859375 349.507812 C 258.644531 349.507812 258.4375 349.46875 258.238281 349.386719 C 258.039062 349.300781 257.863281 349.183594 257.710938 349.03125 C 257.558594 348.878906 257.441406 348.703125 257.359375 348.503906 C 257.277344 348.304688 257.234375 348.097656 257.234375 347.882812 L 257.234375 269.75 L 189.410156 309.292969 C 189.289062 309.363281 189.15625 309.417969 189.019531 309.457031 C 188.882812 309.496094 188.742188 309.515625 188.601562 309.515625 C 188.457031 309.515625 188.316406 309.496094 188.179688 309.460938 C 188.042969 309.425781 187.910156 309.371094 187.789062 309.300781 C 187.664062 309.230469 187.550781 309.144531 187.449219 309.046875 C 187.347656 308.945312 187.261719 308.835938 187.1875 308.710938 C 187.117188 308.589844 187.0625 308.457031 187.023438 308.320312 C 186.984375 308.183594 186.964844 308.042969 186.964844 307.902344 L 186.652344 268.175781 C 186.648438 267.882812 186.722656 267.609375 186.867188 267.355469 C 187.011719 267.101562 187.214844 266.902344 187.46875 266.753906 L 255.15625 227.78125 L 255.019531 146.789062 C 255.019531 146.574219 255.0625 146.367188 255.144531 146.167969 C 255.226562 145.96875 255.34375 145.792969 255.496094 145.640625 C 255.648438 145.488281 255.824219 145.371094 256.023438 145.289062 C 256.222656 145.207031 256.429688 145.164062 256.644531 145.164062 C 256.863281 145.164062 257.070312 145.207031 257.269531 145.289062 C 257.46875 145.371094 257.644531 145.488281 257.796875 145.640625 C 257.949219 145.792969 258.066406 145.96875 258.148438 146.167969 C 258.230469 146.367188 258.273438 146.574219 258.273438 146.789062 L 258.410156 228.722656 C 258.410156 229.011719 258.335938 229.285156 258.191406 229.535156 C 258.046875 229.789062 257.847656 229.988281 257.59375 230.132812 L 189.914062 269.101562 L 190.195312 305.074219 L 258.042969 265.515625 C 258.292969 265.367188 258.566406 265.292969 258.855469 265.292969 C 259.148438 265.292969 259.421875 265.367188 259.671875 265.511719 C 259.925781 265.65625 260.125 265.855469 260.269531 266.109375 C 260.414062 266.359375 260.488281 266.632812 260.488281 266.925781 L 260.488281 345.089844 L 289.347656 328.671875 L 289.347656 248.648438 C 289.347656 248.355469 289.421875 248.078125 289.570312 247.824219 C 289.722656 247.570312 289.925781 247.371094 290.183594 247.226562 L 359.785156 208.457031 L 359.785156 168.929688 C 359.785156 168.714844 359.824219 168.507812 359.90625 168.308594 C 359.988281 168.109375 360.109375 167.933594 360.261719 167.78125 C 360.414062 167.628906 360.589844 167.511719 360.789062 167.429688 C 360.988281 167.347656 361.195312 167.304688 361.410156 167.304688 C 361.625 167.304688 361.832031 167.347656 362.03125 167.429688 C 362.230469 167.511719 362.40625 167.628906 362.558594 167.78125 C 362.710938 167.933594 362.828125 168.109375 362.914062 168.308594 C 362.996094 168.507812 363.035156 168.714844 363.035156 168.929688 L 363.035156 209.414062 C 363.035156 209.707031 362.960938 209.984375 362.8125 210.238281 C 362.664062 210.492188 362.460938 210.691406 362.203125 210.835938 L 292.601562 249.605469 L 292.601562 329.613281 C 292.597656 329.90625 292.527344 330.175781 292.378906 330.429688 C 292.230469 330.679688 292.03125 330.878906 291.777344 331.023438 L 259.664062 349.292969 C 259.414062 349.433594 259.148438 349.507812 258.859375 349.507812 Z M 258.859375 349.507812 " fill-opacity="1" fill-rule="nonzero"/></g><path fill="#f9943b" d="M 256.78125 230.347656 C 256.488281 230.347656 256.210938 230.269531 255.957031 230.121094 L 187.453125 189.707031 C 187.207031 189.5625 187.015625 189.367188 186.871094 189.125 C 186.730469 188.878906 186.65625 188.613281 186.652344 188.328125 L 185.492188 104.738281 C 185.488281 104.519531 185.527344 104.3125 185.605469 104.113281 C 185.6875 103.910156 185.800781 103.734375 185.953125 103.578125 C 186.101562 103.421875 186.277344 103.304688 186.472656 103.21875 C 186.671875 103.132812 186.878906 103.089844 187.09375 103.085938 C 187.3125 103.082031 187.519531 103.121094 187.71875 103.199219 C 187.921875 103.28125 188.097656 103.394531 188.253906 103.546875 C 188.40625 103.695312 188.527344 103.871094 188.613281 104.070312 C 188.699219 104.269531 188.742188 104.476562 188.746094 104.691406 L 189.890625 187.371094 L 257.609375 227.320312 C 257.925781 227.503906 258.152344 227.769531 258.289062 228.109375 C 258.429688 228.449219 258.449219 228.796875 258.351562 229.148438 C 258.253906 229.503906 258.0625 229.789062 257.769531 230.011719 C 257.476562 230.234375 257.148438 230.347656 256.78125 230.347656 Z M 256.78125 230.347656 " fill-opacity="1" fill-rule="nonzero"/><path fill="#f9943b" d="M 188.277344 269.789062 C 187.992188 269.789062 187.722656 269.71875 187.476562 269.574219 L 117.996094 230.136719 C 117.742188 229.992188 117.542969 229.792969 117.398438 229.542969 C 117.25 229.292969 117.175781 229.019531 117.175781 228.730469 C 117.171875 228.4375 117.246094 228.167969 117.390625 227.914062 C 117.53125 227.660156 117.730469 227.460938 117.980469 227.316406 L 187.460938 186.902344 C 187.648438 186.789062 187.847656 186.71875 188.0625 186.6875 C 188.28125 186.65625 188.492188 186.667969 188.703125 186.71875 C 188.914062 186.773438 189.109375 186.867188 189.28125 187 C 189.457031 187.128906 189.597656 187.289062 189.707031 187.476562 C 189.816406 187.667969 189.886719 187.867188 189.914062 188.085938 C 189.941406 188.300781 189.925781 188.515625 189.871094 188.722656 C 189.8125 188.933594 189.714844 189.125 189.582031 189.296875 C 189.449219 189.46875 189.285156 189.609375 189.097656 189.714844 L 122.0625 228.703125 L 189.082031 266.75 C 189.402344 266.929688 189.632812 267.191406 189.777344 267.53125 C 189.921875 267.875 189.945312 268.222656 189.851562 268.578125 C 189.757812 268.9375 189.5625 269.226562 189.269531 269.453125 C 188.976562 269.679688 188.648438 269.789062 188.277344 269.789062 Z M 188.277344 269.789062 " fill-opacity="1" fill-rule="nonzero"/><path fill="#f9943b" d="M 118.800781 230.347656 C 118.585938 230.347656 118.375 230.304688 118.175781 230.222656 C 117.976562 230.140625 117.800781 230.023438 117.648438 229.871094 C 117.496094 229.71875 117.378906 229.542969 117.296875 229.34375 C 117.214844 229.144531 117.171875 228.9375 117.171875 228.71875 L 117.171875 146.789062 C 117.171875 146.574219 117.214844 146.367188 117.296875 146.167969 C 117.378906 145.96875 117.496094 145.792969 117.648438 145.640625 C 117.800781 145.488281 117.976562 145.371094 118.175781 145.289062 C 118.375 145.207031 118.585938 145.164062 118.800781 145.164062 C 119.015625 145.164062 119.222656 145.207031 119.421875 145.289062 C 119.621094 145.371094 119.796875 145.488281 119.949219 145.640625 C 120.101562 145.792969 120.21875 145.96875 120.300781 146.167969 C 120.382812 146.367188 120.425781 146.574219 120.425781 146.789062 L 120.425781 228.722656 C 120.425781 228.9375 120.382812 229.144531 120.300781 229.34375 C 120.21875 229.542969 120.101562 229.71875 119.949219 229.871094 C 119.796875 230.023438 119.621094 230.140625 119.421875 230.222656 C 119.222656 230.304688 119.015625 230.347656 118.800781 230.347656 Z M 118.800781 230.347656 " fill-opacity="1" fill-rule="nonzero"/><g clip-path="url(#baae92791b)"><path fill="#f9943b" d="M 258.859375 349.507812 C 258.574219 349.507812 258.304688 349.433594 258.054688 349.292969 L 188.59375 309.757812 L 119.609375 349.292969 C 119.484375 349.363281 119.355469 349.417969 119.214844 349.453125 C 119.078125 349.492188 118.9375 349.507812 118.796875 349.507812 C 118.652344 349.507812 118.515625 349.492188 118.375 349.453125 C 118.238281 349.417969 118.109375 349.363281 117.984375 349.289062 C 117.863281 349.21875 117.75 349.132812 117.648438 349.03125 C 117.546875 348.929688 117.460938 348.820312 117.390625 348.695312 C 117.320312 348.574219 117.265625 348.441406 117.230469 348.304688 C 117.191406 348.167969 117.171875 348.027344 117.171875 347.882812 L 117.171875 268.164062 C 117.175781 268.023438 117.191406 267.882812 117.230469 267.746094 C 117.265625 267.609375 117.320312 267.476562 117.390625 267.355469 C 117.460938 267.230469 117.546875 267.121094 117.648438 267.019531 C 117.75 266.917969 117.859375 266.832031 117.984375 266.761719 C 118.105469 266.691406 118.238281 266.636719 118.375 266.597656 C 118.511719 266.5625 118.652344 266.542969 118.792969 266.542969 C 118.933594 266.542969 119.074219 266.558594 119.210938 266.59375 C 119.351562 266.632812 119.480469 266.683594 119.605469 266.753906 L 189.371094 306.464844 L 189.421875 306.496094 L 259.664062 346.472656 C 259.984375 346.65625 260.214844 346.917969 260.355469 347.257812 C 260.496094 347.597656 260.519531 347.945312 260.425781 348.300781 C 260.332031 348.65625 260.140625 348.945312 259.847656 349.167969 C 259.558594 349.394531 259.226562 349.507812 258.859375 349.507812 Z M 120.425781 270.960938 L 120.425781 345.078125 L 185.3125 307.890625 Z M 120.425781 270.960938 " fill-opacity="1" fill-rule="nonzero"/></g><g clip-path="url(#3073f4cba5)"><path fill="#f9943b" d="M 118.796875 349.507812 C 118.527344 349.507812 118.269531 349.445312 118.03125 349.316406 L 82.71875 330.332031 C 82.453125 330.191406 82.242188 329.992188 82.089844 329.730469 C 81.9375 329.472656 81.859375 329.195312 81.859375 328.894531 L 82.292969 248.277344 L 12.910156 208.960938 C 12.65625 208.816406 12.453125 208.617188 12.304688 208.367188 C 12.160156 208.113281 12.085938 207.839844 12.085938 207.546875 L 12.128906 167.054688 C 12.128906 166.757812 12.203125 166.484375 12.355469 166.230469 C 12.503906 165.976562 12.707031 165.777344 12.964844 165.636719 C 13.222656 165.492188 13.496094 165.421875 13.792969 165.429688 C 14.085938 165.4375 14.359375 165.519531 14.609375 165.671875 L 82.871094 207.828125 L 83.953125 47.128906 C 83.957031 46.914062 84 46.710938 84.082031 46.511719 C 84.164062 46.3125 84.28125 46.140625 84.433594 45.988281 C 84.585938 45.835938 84.761719 45.71875 84.960938 45.640625 C 85.160156 45.558594 85.367188 45.515625 85.582031 45.515625 L 85.589844 45.515625 C 85.808594 45.515625 86.015625 45.558594 86.214844 45.644531 C 86.410156 45.726562 86.585938 45.847656 86.738281 46 C 86.890625 46.152344 87.007812 46.332031 87.085938 46.53125 C 87.167969 46.730469 87.207031 46.9375 87.207031 47.152344 L 86.101562 210.738281 C 86.101562 211.03125 86.023438 211.304688 85.875 211.558594 C 85.722656 211.8125 85.519531 212.007812 85.265625 212.152344 C 85.007812 212.292969 84.730469 212.363281 84.4375 212.355469 C 84.144531 212.347656 83.871094 212.265625 83.621094 212.113281 L 15.378906 169.96875 L 15.335938 206.601562 L 84.722656 245.917969 C 84.976562 246.066406 85.179688 246.265625 85.328125 246.519531 C 85.476562 246.773438 85.546875 247.050781 85.546875 247.34375 L 85.113281 327.933594 L 119.5625 346.449219 C 119.890625 346.625 120.132812 346.886719 120.28125 347.226562 C 120.433594 347.566406 120.460938 347.917969 120.371094 348.28125 C 120.28125 348.640625 120.085938 348.9375 119.792969 349.164062 C 119.5 349.394531 119.164062 349.507812 118.792969 349.507812 Z M 118.796875 349.507812 " fill-opacity="1" fill-rule="nonzero"/></g><path fill="#f9943b" d="M 13.757812 168.683594 C 13.382812 168.683594 13.046875 168.566406 12.753906 168.335938 C 12.460938 168.105469 12.269531 167.808594 12.179688 167.445312 C 12.089844 167.085938 12.121094 166.734375 12.273438 166.390625 C 12.425781 166.050781 12.667969 165.792969 12.996094 165.617188 L 84.824219 127.632812 C 85.015625 127.527344 85.21875 127.460938 85.4375 127.4375 C 85.65625 127.410156 85.871094 127.429688 86.082031 127.492188 C 86.292969 127.554688 86.480469 127.652344 86.652344 127.792969 C 86.820312 127.929688 86.957031 128.097656 87.0625 128.292969 C 87.164062 128.484375 87.222656 128.691406 87.242188 128.910156 C 87.261719 129.128906 87.238281 129.34375 87.167969 129.554688 C 87.101562 129.761719 86.996094 129.949219 86.851562 130.113281 C 86.710938 130.28125 86.539062 130.414062 86.34375 130.511719 L 14.515625 168.492188 C 14.277344 168.617188 14.023438 168.683594 13.757812 168.683594 Z M 13.757812 168.683594 " fill-opacity="1" fill-rule="nonzero"/></svg>